<svg width="27" height="44" viewBox="0 0 27 44" fill="none" xmlns="http://www.w3.org/2000/svg">
<path d="M13.4997 6.56856C16.2465 6.56856 18.4808 8.65007 18.4808 11.209C18.4808 13.7659 16.2459 15.8474 13.4997 15.8474C10.7546 15.8474 8.51966 13.7659 8.51966 11.209C8.51909 8.64954 10.7551 6.56856 13.4997 6.56856ZM13.4997 22.4127C20.1347 22.4127 25.5305 17.3876 25.5305 11.209C25.5305 5.02728 20.1353 0 13.4997 0C6.86522 0 1.46888 5.02781 1.46888 11.209C1.46888 17.3876 6.86522 22.4127 13.4997 22.4127ZM18.3668 31.5547C20.8417 31.0296 23.2036 30.1186 25.3525 28.86C26.1436 28.3963 26.7046 27.6589 26.9121 26.8098C27.1195 25.9608 26.9565 25.0698 26.4587 24.3328C26.2126 23.9675 25.8915 23.651 25.514 23.4013C25.1364 23.1517 24.7097 22.9739 24.2583 22.878C23.8069 22.7822 23.3396 22.7702 22.8833 22.8427C22.4269 22.9152 21.9903 23.0708 21.5985 23.3006C16.6698 26.1873 10.3261 26.1852 5.4014 23.3006C5.00968 23.0707 4.57315 22.9151 4.11679 22.8425C3.66043 22.77 3.1932 22.782 2.74182 22.8779C2.29045 22.9737 1.8638 23.1516 1.48628 23.4012C1.10877 23.6509 0.787802 23.9674 0.541747 24.3328C0.0438659 25.0696 -0.119472 25.9605 0.0876546 26.8095C0.294781 27.6585 0.85541 28.3961 1.64624 28.86C3.79502 30.1181 6.1564 31.0292 8.6308 31.5547L1.90537 37.8213C1.24445 38.4372 0.873239 39.2725 0.873401 40.1434C0.873563 41.0143 1.24508 41.8495 1.90624 42.4652C2.56739 43.081 3.46402 43.4268 4.39887 43.4266C5.33372 43.4265 6.23022 43.0804 6.89114 42.4644L13.4985 36.3079L20.1099 42.465C20.4368 42.77 20.825 43.0119 21.2524 43.177C21.6798 43.3421 22.1379 43.427 22.6005 43.427C23.0631 43.427 23.5212 43.3421 23.9486 43.177C24.376 43.0119 24.7642 42.77 25.0911 42.465C25.4189 42.1605 25.6791 41.7987 25.8566 41.4003C26.0341 41.002 26.1254 40.575 26.1254 40.1437C26.1254 39.7124 26.0341 39.2853 25.8566 38.887C25.6791 38.4886 25.4189 38.1268 25.0911 37.8223L18.3668 31.5547Z" fill="#EE8208"/>
</svg>
