<svg width="50" height="27" viewBox="0 0 50 27" fill="none" xmlns="http://www.w3.org/2000/svg">
<path d="M24.465 26.4657H27.4527C27.4527 26.4657 28.3559 26.3725 28.8153 25.9096C29.2403 25.4845 29.2247 24.6867 29.2247 24.6867C29.2247 24.6867 29.1653 20.9513 31.028 20.401C32.8625 19.8595 35.2189 24.0113 37.716 25.6097C39.6036 26.818 41.0381 26.553 41.0381 26.553L47.7167 26.4657C47.7167 26.4657 51.2107 26.2648 49.5543 23.7056C49.4199 23.496 48.5886 21.8131 44.5883 18.3543C40.4005 14.7324 40.9631 15.3205 46.0072 9.05789C49.0793 5.24384 50.3075 2.91465 49.9231 1.91892C49.5575 0.969772 47.2979 1.22016 47.2979 1.22016L39.7849 1.26092C39.7849 1.26092 39.2286 1.19105 38.8129 1.42105C38.4098 1.64815 38.1504 2.17222 38.1504 2.17222C38.1504 2.17222 36.9597 5.12446 35.372 7.63417C32.0249 12.9302 30.6842 13.2097 30.1373 12.8807C28.8653 12.1149 29.1841 9.80031 29.1841 8.15823C29.1841 3.02528 30.0185 0.885339 27.5558 0.332156C26.737 0.148732 26.137 0.02645 24.0462 0.00606961C21.3648 -0.0201338 19.0927 0.0148041 17.8083 0.600013C16.9519 0.990152 16.2925 1.86069 16.6957 1.91018C17.1926 1.97132 18.3177 2.1926 18.9146 2.94958C19.6865 3.92493 19.6584 6.12019 19.6584 6.12019C19.6584 6.12019 20.1022 12.1615 18.6239 12.9127C17.6082 13.428 16.2175 12.377 13.2329 7.57011C11.7047 5.10991 10.5483 2.38767 10.5483 2.38767C10.5483 2.38767 10.3265 1.88107 9.92955 1.6103C9.44827 1.2813 8.77322 1.17649 8.77322 1.17649L1.62894 1.21725C1.62894 1.21725 0.556989 1.24636 0.16321 1.68018C-0.186816 2.0674 0.135083 2.86515 0.135083 2.86515C0.135083 2.86515 5.72924 15.0555 12.061 21.2017C17.8708 26.8354 24.465 26.4657 24.465 26.4657Z" fill="#1E88E5"/>
</svg>
